# File created by Blade
# Date/Time:  Tue Jan 27 20:02:37 2015
# Frame Rate: 120.000 fps
#------------------------------------------------------
:FULLY-SPECIFIED
:DEGREES
1847
root 8.248084 32.510590 3.939093 -7.452322 -10.750146 -10.198149
Spine 8.307178 8.144352 7.067528
Head 14.816194 -5.817435 3.563055
LeftShoulder -14.558903 0.013732 27.932063
LeftArm -5.233492 -5.092196 -80.976608
LeftForeArm -10.770377 -0.000000 120.380615
LeftHand 9.971590 -0.000000 -9.098161
LeftHandThumb1 -26.253704 0.000000 33.147579
RightShoulder -19.490942 -16.946269 -21.460382
RightArm 10.562858 -19.969777 87.168177
RightForeArm -13.409001 -0.000000 8.715646
RightHand 18.184279 0.000000 8.249788
RightHandThumb1 -24.326973 -0.000000 -32.862282
LeftUpLeg 14.944383 9.912786 0.382994
LeftLeg -1.994619 -0.000000 0.000000
LeftFoot -18.866548 19.666675 -14.603555
LeftToeBase 19.957602 -0.000000 -0.000000
RightUpLeg -53.882867 -34.921875 0.686745
RightLeg 96.346958 -0.000000 -0.000000
RightFoot 26.099077 -26.412431 12.291658
RightToeBase 23.232389 -0.000000 -0.000000
1848
root 8.253394 32.503625 3.937962 -7.423592 -10.754796 -10.126910
Spine 8.286322 8.133366 7.025027
Head 14.809623 -5.748591 3.507841
LeftShoulder -14.590806 0.095945 27.909389
LeftArm -5.220066 -5.133127 -80.979842
LeftForeArm -10.837649 -0.000000 120.413612
LeftHand 9.975320 0.000000 -9.107790
LeftHandThumb1 -26.253704 0.000000 33.147579
RightShoulder -19.464852 -16.944420 -21.526363
RightArm 10.572899 -19.991837 87.143869
RightForeArm -13.521414 -0.000000 8.719484
RightHand 18.178115 -0.000000 8.656455
RightHandThumb1 -24.326973 -0.000000 -32.862282
LeftUpLeg 14.898104 9.825057 0.281409
LeftLeg -1.988197 -0.000000 0.000000
LeftFoot -18.953061 19.552250 -14.985925
LeftToeBase 19.784727 -0.000000 -0.000000
RightUpLeg -53.559352 -34.939487 0.760954
RightLeg 97.208148 -0.000000 -0.000000
RightFoot 26.072994 -26.665829 12.437479
RightToeBase 23.260739 -0.000000 -0.000000
1849
root 8.260498 32.495659 3.933409 -7.382557 -10.782832 -10.040976
Spine 8.264644 8.162333 6.974311
Head 14.789676 -5.697196 3.456759
LeftShoulder -14.613053 0.111918 27.887465
LeftArm -5.236832 -5.154941 -80.967735
LeftForeArm -10.887741 -0.000000 120.448338
LeftHand 9.960269 0.000000 -9.158606
LeftHandThumb1 -26.253704 0.000000 33.147579
RightShoulder -19.447252 -16.957658 -21.573329
RightArm 10.617564 -20.026547 87.093812
RightForeArm -13.366402 -0.000000 8.714368
RightHand 18.230442 -0.000000 8.200106
RightHandThumb1 -24.326973 -0.000000 -32.862282
LeftUpLeg 14.859958 9.886435 0.188937
LeftLeg -2.029168 -0.000000 0.000000
LeftFoot -18.960028 19.494696 -15.047121
LeftToeBase 19.811290 -0.000000 -0.000000
RightUpLeg -53.256961 -34.901222 0.805322
RightLeg 98.012025 -0.000000 -0.000000
RightFoot 26.039675 -26.789134 12.573475
RightToeBase 22.916314 -0.000000 -0.000000
1850
root 8.270380 32.487102 3.927585 -7.340322 -10.798332 -9.931558
Spine 8.244426 8.185273 6.903665
Head 14.764154 -5.655599 3.391321
LeftShoulder -14.645852 0.133021 27.849419
LeftArm -5.227386 -5.151693 -80.939522
LeftForeArm -10.924802 -0.000000 120.483120
LeftHand 9.936389 0.000000 -9.164542
LeftHandThumb1 -26.253704 0.000000 33.147579
RightShoulder -19.419102 -16.944488 -21.631926
RightArm 10.605714 -20.028446 87.060849
RightForeArm -13.311739 0.000000 8.761247
RightHand 18.173184 -0.000000 8.163095
RightHandThumb1 -24.326973 -0.000000 -32.862282
LeftUpLeg 14.808576 9.883020 0.060244
LeftLeg -2.065415 -0.000000 0.000000
LeftFoot -18.934363 19.449321 -15.078985
LeftToeBase 19.809446 -0.000000 -0.000000
RightUpLeg -52.959320 -34.856388 0.789141
RightLeg 98.728390 -0.000000 -0.000000
RightFoot 26.129877 -26.872190 12.749114
RightToeBase 23.128178 -0.000000 -0.000000
1851
root 8.281624 32.477524 3.919137 -7.288871 -10.814825 -9.810129
Spine 8.216400 8.209193 6.820506
Head 14.749684 -5.615983 3.329814
LeftShoulder -14.653304 0.107989 27.825098
LeftArm -5.273005 -5.164723 -80.913371
LeftForeArm -10.962369 -0.000000 120.525418
LeftHand 9.951135 -0.000000 -9.183212
LeftHandThumb1 -26.253704 0.000000 33.147579
RightShoulder -19.376390 -16.939719 -21.694496
RightArm 10.601009 -19.983354 87.033473
RightForeArm -13.369545 -0.000000 8.810055
RightHand 18.191808 -0.000000 8.224883
RightHandThumb1 -24.326973 -0.000000 -32.862282
LeftUpLeg 14.754055 9.936475 -0.071779
LeftLeg -2.126042 -0.000000 0.000000
LeftFoot -18.906528 19.350112 -15.167348
LeftToeBase 19.890536 -0.000000 -0.000000
RightUpLeg -52.688863 -34.807843 0.763711
RightLeg 99.360114 -0.000000 -0.000000
RightFoot 26.455559 -26.748573 12.684852
RightToeBase 22.638418 -0.000000 -0.000000
1852
root 8.292906 32.467723 3.911862 -7.246182 -10.823962 -9.691689
Spine 8.196219 8.247558 6.743657
Head 14.735055 -5.593258 3.272614
LeftShoulder -14.646938 0.075102 27.786067
LeftArm -5.294476 -5.147087 -80.861370
LeftForeArm -11.002793 -0.000000 120.568961
LeftHand 9.993124 -0.000000 -9.106041
LeftHandThumb1 -26.253704 0.000000 33.147579
RightShoulder -19.376875 -16.970883 -21.744168
RightArm 10.656910 -19.987653 86.988873
RightForeArm -13.386218 -0.000000 8.808848
RightHand 18.253856 -0.000000 8.280053
RightHandThumb1 -24.326973 -0.000000 -32.862282
LeftUpLeg 14.716223 10.014696 -0.191981
LeftLeg -2.200390 -0.000000 0.000000
LeftFoot -18.874007 19.211744 -15.228531
LeftToeBase 20.062903 -0.000000 -0.000000
RightUpLeg -52.420820 -34.765721 0.714193
RightLeg 99.918931 -0.000000 -0.000000
RightFoot 26.405754 -26.882212 13.297192
RightToeBase 23.191765 -0.000000 -0.000000
1853
root 8.306997 32.457651 3.901121 -7.172167 -10.836122 -9.568982
Spine 8.151885 8.264104 6.665590
Head 14.729329 -5.498366 3.202445
LeftShoulder -14.654028 0.090511 27.747963
LeftArm -5.297772 -5.181656 -80.859455
LeftForeArm -11.024731 0.000000 120.603065
LeftHand 10.002095 -0.000000 -9.133267
LeftHandThumb1 -26.253704 0.000000 33.147579
RightShoulder -19.343540 -16.959248 -21.822807
RightArm 10.670676 -20.009839 86.954582
RightForeArm -13.398078 -0.000000 8.816783
RightHand 18.280980 -0.000000 8.623760
RightHandThumb1 -24.326973 -0.000000 -32.862282
LeftUpLeg 14.629575 10.083283 -0.336357
LeftLeg -2.250435 -0.000000 0.000000
LeftFoot -18.864911 19.190224 -15.182106
LeftToeBase 20.340998 -0.000000 -0.000000
RightUpLeg -52.189261 -34.695572 0.663706
RightLeg 100.373003 -0.000000 -0.000000
RightFoot 26.577512 -26.854059 13.544631
RightToeBase 23.485295 -0.000000 -0.000000
1854
root 8.322083 32.446816 3.890007 -7.099150 -10.832123 -9.441299
Spine 8.104346 8.264000 6.583852
Head 14.711338 -5.448813 3.120579
LeftShoulder -14.650984 0.097428 27.725503
LeftArm -5.318809 -5.230819 -80.877691
LeftForeArm -11.095626 0.000000 120.628207
LeftHand 9.998170 -0.000000 -9.187647
LeftHandThumb1 -26.253704 0.000000 33.147579
RightShoulder -19.312528 -16.937846 -21.903131
RightArm 10.692909 -20.065930 86.904422
RightForeArm -13.186819 -0.000000 8.813846
RightHand 18.324709 0.000000 8.226639
RightHandThumb1 -24.326973 -0.000000 -32.862282
LeftUpLeg 14.537342 10.115611 -0.494718
LeftLeg -2.314311 -0.000000 0.000000
LeftFoot -18.757357 19.102402 -15.155088
LeftToeBase 20.587820 -0.000000 -0.000000
RightUpLeg -52.006849 -34.678212 0.632288
RightLeg 100.785832 -0.000000 -0.000000
RightFoot 26.753006 -27.008028 13.884742
RightToeBase 23.038317 -0.000000 -0.000000
1855
root 8.336949 32.437121 3.878489 -7.020867 -10.822717 -9.340381
Spine 8.059898 8.249181 6.544055
Head 14.694680 -5.400323 3.003985
LeftShoulder -14.645065 0.088123 27.683932
LeftArm -5.355663 -5.279524 -80.901546
LeftForeArm -11.090964 -0.000000 120.648073
LeftHand 10.021233 -0.000000 -9.128857
LeftHandThumb1 -26.253704 0.000000 33.147579
RightShoulder -19.287853 -16.897723 -21.997752
RightArm 10.697836 -20.073445 86.860168
RightForeArm -13.155270 -0.000000 8.818245
RightHand 18.269845 -0.000000 8.186879
RightHandThumb1 -24.326973 -0.000000 -32.862282
LeftUpLeg 14.440757 10.107290 -0.635036
LeftLeg -2.365149 -0.000000 0.000000
LeftFoot -18.759803 18.931194 -15.520545
LeftToeBase 20.350601 -0.000000 -0.000000
RightUpLeg -51.819204 -34.662361 0.619306
RightLeg 101.097646 -0.000000 -0.000000
RightFoot 26.860731 -27.017228 13.902240
RightToeBase 22.980598 -0.000000 -0.000000
1856
root 8.354375 32.427916 3.866244 -6.981661 -10.824114 -9.213218
Spine 8.067181 8.224372 6.479210
Head 14.661226 -5.347161 2.913304
LeftShoulder -14.652639 0.104231 27.643514
LeftArm -5.350363 -5.349044 -80.953794
LeftForeArm -11.061736 -0.000000 120.660986
LeftHand 10.024442 -0.000000 -9.104825
LeftHandThumb1 -26.253704 0.000000 33.147579
RightShoulder -19.242761 -16.879032 -22.078350
RightArm 10.757683 -20.087092 86.793728
RightForeArm -13.176487 -0.000000 8.821674
RightHand 18.274823 0.000000 8.235594
RightHandThumb1 -24.326973 -0.000000 -32.862282
LeftUpLeg 14.364659 10.114510 -0.799761
LeftLeg -2.386983 -0.000000 0.000000
LeftFoot -18.688242 19.081608 -15.177988
LeftToeBase 20.303593 -0.000000 -0.000000
RightUpLeg -51.616159 -34.620152 0.545504
RightLeg 101.345836 -0.000000 -0.000000
RightFoot 26.824887 -27.087568 13.991854
RightToeBase 22.772125 -0.000000 -0.000000
